<svg xmlns="http://www.w3.org/2000/svg" width="81.292" height="81.292" viewBox="0 0 81.292 81.292">
  <g id="Group_3070" data-name="Group 3070" transform="translate(-140.8 -136.573)">
    <circle id="Ellipse_1166" data-name="Ellipse 1166" cx="35.436" cy="35.436" r="35.436" transform="translate(140.8 206.534) rotate(-80.8)" fill="#2fa5a1"/>
    <path id="Path_9968" data-name="Path 9968" d="M163.893,229.6a29.3,29.3,0,1,1-29.3-29.3A29.3,29.3,0,0,1,163.893,229.6Z" transform="translate(46.865 -52.351)" fill="#007779"/>
    <path id="Path_9969" data-name="Path 9969" d="M164.045,232.024A27.073,27.073,0,1,1,136.973,205a27.073,27.073,0,0,1,27.073,27.024Z" transform="translate(44.488 -54.779)" fill="#edecdf"/>
    <path id="Path_9970" data-name="Path 9970" d="M140.227,259.254a24.027,24.027,0,1,1,24.027-24.027,24.027,24.027,0,0,1-24.027,24.027Zm0-42.639a18.612,18.612,0,1,0,18.612,18.612,18.612,18.612,0,0,0-18.612-18.612Z" transform="translate(41.234 -57.982)" fill="#d4d3bf"/>
    <path id="Path_9971" data-name="Path 9971" d="M144.077,235.686l1.257.048-1.064-.58,20.208-1.015-20.256-1.064,1.112-.532-1.257.048,17.017-11.022-18.032,9.185.677-1.015-1.015.677,9.185-18.032L140.886,229.4l.048-1.257-.58,1.064L139.339,209l-1.064,20.208-.532-1.064.048,1.257-11.022-17.017,9.185,18.032-1.015-.677.677,1.015-18.032-9.185L134.6,232.592l-1.257-.048,1.064.532L114.2,234.139l20.208,1.015-1.064.58,1.257-.048-17.017,11.022,18.032-9.185-.677,1.015,1.015-.677-9.185,18.032,11.022-17.017-.048,1.257.532-1.112,1.064,20.256,1.015-20.256.58,1.112-.048-1.257,11.022,17.017-9.185-18.032,1.015.677-.677-1.015,18.032,9.185Z" transform="translate(42.267 -56.845)" fill="#dadacf"/>
    <path id="Path_9972" data-name="Path 9972" d="M165.744,236.352l-2.272,2.852-2.272-2.852,2.272-17.452Z" transform="translate(17.989 -61.959)" fill="#ce3824"/>
    <path id="Path_9973" data-name="Path 9973" d="M161.2,263.752l2.272-2.852,2.272,2.852-2.272,17.5Z" transform="translate(17.989 -83.655)" fill="#2f2b2f" stroke="#2f2b2f" stroke-linecap="round" stroke-linejoin="round" stroke-width="0.77"/>
    <path id="Path_9974" data-name="Path 9974" d="M165.761,258.73a2.03,2.03,0,1,1-2.03-2.03A2.03,2.03,0,0,1,165.761,258.73Z" transform="translate(17.731 -81.485)" fill="#533834" stroke="#2f2b2f" stroke-linecap="round" stroke-linejoin="round" stroke-width="1.05"/>
    <path id="Path_9975" data-name="Path 9975" d="M166,213.257a1.257,1.257,0,0,0-.145-.725,1.16,1.16,0,0,0-.58-.193V212h1.837v.338a.919.919,0,0,0-.532.193,1.257,1.257,0,0,0-.145.725v3.674h-.58l-3.094-3.626v2.417a1.16,1.16,0,0,0,.145.677.822.822,0,0,0,.58.193v.338H161.6v-.338a.822.822,0,0,0,.58-.193,1.16,1.16,0,0,0,.145-.677v-2.9l-.338-.338-.387-.145V212h1.6l2.8,3.287Z" transform="translate(17.782 -58.395)" fill="#2f2b2f"/>
    <path id="Path_9976" data-name="Path 9976" d="M205.025,256.112a.822.822,0,0,0-.29-.532.58.58,0,0,0-.435-.145v-.387h2.224v.387a.338.338,0,0,0-.29.1.387.387,0,0,0-.1.242v.145c.048.048.048.145.1.242l.628,2.369.773-2.417a2.417,2.417,0,0,0-.145-.58l-.338-.1H207.1v-.387h2.079v.387h-.29c-.1.048-.1.145-.1.242v.242l.58,2.562.773-2.224c.048-.1.048-.193.1-.29v-.193a.387.387,0,0,0-.1-.29c-.1-.1-.242-.1-.435-.1V255h1.692v.387a.677.677,0,0,0-.483.242,2.418,2.418,0,0,0-.338.628l-1.354,3.819h-.58l-.822-3.336-1.112,3.336h-.628Z" transform="translate(-4.275 -80.607)" fill="#2f2b2f"/>
    <path id="Path_9977" data-name="Path 9977" d="M121.248,258.1v1.644h-.338a1.982,1.982,0,0,0-.483-1.015,1.886,1.886,0,0,0-1.112-.29l-.532.1a.919.919,0,0,0-.145.628v1.064h.338a.725.725,0,0,0,.58-.193.967.967,0,0,0,.242-.677h.338v2.175H119.8a1.015,1.015,0,0,0-.242-.725.822.822,0,0,0-.58-.242h-.338v1.4a.919.919,0,0,0,.145.628.677.677,0,0,0,.435.1,1.6,1.6,0,0,0,1.16-.338,2.175,2.175,0,0,0,.58-1.112h.387v1.789H116.8v-.387h.242a.387.387,0,0,0,.338-.145.967.967,0,0,0,.1-.532v-2.8a1.064,1.064,0,0,0-.1-.58c-.048-.1-.193-.1-.338-.145H116.8V258.1Z" transform="translate(40.924 -82.208)" fill="#2f2b2f"/>
    <path id="Path_9978" data-name="Path 9978" d="M164.236,303.3v1.16a.483.483,0,0,0,.145.387l.387.1h.242v.338h-2.756v-.338h.242l.387-.1a.483.483,0,0,0,.145-.387V303.3l-1.257-2.03a1.4,1.4,0,0,0-.338-.387.822.822,0,0,0-.483-.145H160.9V300.4h2.852v.338h-.145a.628.628,0,0,0-.387.1c-.1.048-.145.1-.145.193a.193.193,0,0,0,.048.145.435.435,0,0,0,.145.29l.822,1.4.822-1.209.145-.29a.44.44,0,0,0-.1-.532l-.532-.1V300.4h1.982v.338l-.435.193a1.5,1.5,0,0,0-.387.483Z" transform="translate(18.144 -104.059)" fill="#2f2b2f"/>
  </g>
</svg>
